<svg height="16" viewBox="0 0 16 16" width="16" xmlns="http://www.w3.org/2000/svg"><path d="m8 15.7637647c-4.37317647 0-7.91717647-3.5449412-7.91717647-7.91811764 0-2.35294118 1.03032941-4.46047059 2.66094118-5.90894118h-1.39338824c-.39155294 0-.70955294-.31802353-.70955294-.70955294v-.2821647c0-.39155295.31802353-.70955295.70955294-.70955295h3.94588235c.00275742 0 .00551483-.00091905.00827224-.00091905h.2821647c.19577177 0 .37407059.07996235.5018353.20864.12867765.12867764.20772.30607058.20772.50183529v.28216471c0 .00275717-.00091906.00459552-.00091906.00643388v3.94658823c0 .39155294-.31802353.70955294-.70955294.70955294h-.28216471c-.39155294 0-.70955294-.31802353-.70955294-.70955294v-2.48988235c-1.68381176 1.11214118-2.79788235 3.01647059-2.79788235 5.18658824 0 3.43647056 2.78588235 6.22235296 6.22235294 6.22235296 3.4364706 0 6.2223529-2.7858824 6.2223529-6.22235296 0-2.6802353-1.6976-4.95764706-4.0734117-5.83364706.016544-.01470589.0312494-.03308706.0468753-.04871294-.1608447-.12132236-.26562356-.31249412-.26562356-.52941177v-.26470588c0-.36764706.29870586-.66635294.66635296-.66635294h.2555059c.0036764-.01838236.008272-.03676471.0119484-.05606588.0753671.02941176.1470589.06433882.2215083.09650823.0284917.01011035.0560659.02205882.08272.03584471 2.7830588 1.22701176 4.7315294 3.99905882 4.7315294 7.23623529 0 4.3731765-3.5449412 7.9171887-7.91811766 7.9171887z" fill="#fff"/></svg>