<svg height="41.125" viewBox="0 0 41 41.125" width="41" xmlns="http://www.w3.org/2000/svg"><path d="m962.54 586.739h-.322a1.8 1.8 0 0 1 -.646.777 2.665 2.665 0 0 1 -1.206.194h-1.784q2.3-1.949 3.049-2.736a7.007 7.007 0 0 0 1.3-1.715 3.266 3.266 0 0 0 .315-1.381 1.866 1.866 0 0 0 -.646-1.4 2.292 2.292 0 0 0 -1.63-.6 2.644 2.644 0 0 0 -1.846.72 3.722 3.722 0 0 0 -.923 1.527l.253.116a1.937 1.937 0 0 1 1.627-1.039 1.335 1.335 0 0 1 1.374 1.392 3.24 3.24 0 0 1 -.284 1.307 8.317 8.317 0 0 1 -1.391 1.877q-1.319 1.481-3.24 3.245v.251h4.922zm-10.53 8.239-2.331.4-.069.258a1.66 1.66 0 0 1 .472.044.368.368 0 0 1 .178.122.324.324 0 0 1 .054.187 3.756 3.756 0 0 1 -.191.917l-1.285 4.365h1.743l.554-1.948a12 12 0 0 1 1.517-2.451 1.558 1.558 0 0 1 .8-.659.135.135 0 0 1 .092.041.119.119 0 0 1 .045.088 2.175 2.175 0 0 1 -.1.5l-1.278 4.433h1.729l.417-1.4a7.519 7.519 0 0 1 .387-1.073 8.937 8.937 0 0 1 .7-1.151 9.275 9.275 0 0 1 .776-1.022 1.943 1.943 0 0 1 .4-.353.422.422 0 0 1 .178-.04.14.14 0 0 1 .1.044.125.125 0 0 1 .048.091 3.664 3.664 0 0 1 -.157.686l-.773 2.648a3.572 3.572 0 0 0 -.17.882.694.694 0 0 0 .253.533.959.959 0 0 0 .669.228 1.824 1.824 0 0 0 1.043-.408 3.715 3.715 0 0 0 1.035-1.283l-.232-.149c-.082.113-.144.2-.185.251a2.9 2.9 0 0 1 -.519.577.192.192 0 0 1 -.13.048.134.134 0 0 1 -.1-.048.143.143 0 0 1 -.044-.1 3.416 3.416 0 0 1 .17-.726l.759-2.532a4.164 4.164 0 0 0 .205-1.127.848.848 0 0 0 -.242-.628.824.824 0 0 0 -.6-.241 1.3 1.3 0 0 0 -.657.176 4.24 4.24 0 0 0 -1.045.937 19.69 19.69 0 0 0 -1.279 1.806l.308-1.093a3.9 3.9 0 0 0 .184-.978.956.956 0 0 0 -.2-.584.75.75 0 0 0 -.642-.264 1.609 1.609 0 0 0 -.776.21 4.069 4.069 0 0 0 -.981.9 20.368 20.368 0 0 0 -1.285 1.813l.875-2.919h-.41zm10.017-2.831a1 1 0 0 0 .708 1.7.975.975 0 0 0 .711-.292 1 1 0 0 0 -1.419-1.408zm.721 2.831-2.317.373-.089.272c.1 0 .178-.007.246-.007a.517.517 0 0 1 .356.115.348.348 0 0 1 .13.265 2.8 2.8 0 0 1 -.137.706l-.95 3.245a2.3 2.3 0 0 0 -.116.638.822.822 0 0 0 .263.628.985.985 0 0 0 .707.248q1.163 0 2.194-1.785l-.232-.136a4.177 4.177 0 0 1 -.738.91.354.354 0 0 1 -.233.1.182.182 0 0 1 -.13-.064.2.2 0 0 1 -.061-.139 2.679 2.679 0 0 1 .116-.543l1.4-4.827h-.41zm4.054 0-2.3.4-.075.258a1.625 1.625 0 0 1 .465.044.368.368 0 0 1 .178.122.336.336 0 0 1 .054.194 3.9 3.9 0 0 1 -.184.917l-1.279 4.358h1.739l.56-2.016a9.526 9.526 0 0 1 1.825-2.668 1.018 1.018 0 0 1 .629-.353.205.205 0 0 1 .144.057.178.178 0 0 1 .061.133 1.612 1.612 0 0 1 -.089.421l-.854 2.9a3.321 3.321 0 0 0 -.164.848.7.7 0 0 0 .239.543.948.948 0 0 0 .663.218q1.107 0 2.112-1.677l-.26-.156q-.137.189-.2.285a2.666 2.666 0 0 1 -.485.556.244.244 0 0 1 -.144.055.148.148 0 0 1 -.106-.055.174.174 0 0 1 -.051-.122 2.442 2.442 0 0 1 .109-.5l.875-2.9a3.266 3.266 0 0 0 .164-.924.942.942 0 0 0 -.252-.682.819.819 0 0 0 -.609-.261 1.785 1.785 0 0 0 -.847.244 4.545 4.545 0 0 0 -1.074.923 17.449 17.449 0 0 0 -1.278 1.745l.848-2.912h-.416z" fill-rule="evenodd" transform="translate(-939.5 -570.5)"/><circle cx="20.5" cy="20.563" fill="none" r="20" stroke="#000"/></svg>